<svg width="17" height="16" viewBox="0 0 17 16" fill="none" xmlns="http://www.w3.org/2000/svg">
    <path d="M5.5115 14.3316L5.51138 14.3317C5.44813 14.3921 5.36405 14.4258 5.27662 14.4258C5.18996 14.4258 5.10661 14.3927 5.04356 14.3333C5.01935 14.3094 5.00007 14.281 4.98681 14.2496C4.97328 14.2176 4.96631 14.1832 4.96631 14.1484C4.96631 14.1136 4.97328 14.0792 4.98681 14.0472C5.00017 14.0156 5.01966 13.9869 5.04413 13.9629L10.9725 8.28448L11.3515 7.92148L10.9706 7.56049L5.04344 1.94322C5.01928 1.91932 5.00004 1.89092 4.98681 1.85961C4.97328 1.82758 4.96631 1.79317 4.96631 1.7584C4.96631 1.72363 4.97328 1.68922 4.98681 1.65719C5.00007 1.62583 5.01934 1.59739 5.04355 1.57347C5.1066 1.5141 5.18996 1.48102 5.27661 1.48102C5.36405 1.48102 5.44813 1.5147 5.51138 1.57508L5.5115 1.5752L11.8015 7.57519L11.8014 7.5753L11.8103 7.5834C11.8619 7.63026 11.9031 7.68738 11.9313 7.7511C11.9594 7.81482 11.974 7.88372 11.974 7.9534C11.974 8.02307 11.9594 8.09198 11.9313 8.1557C11.9031 8.21941 11.8619 8.27654 11.8103 8.3234L11.8102 8.32329L11.8015 8.3316L5.5115 14.3316Z" fill="#B8BDCC" stroke="#AAAFBD"/>
    </svg>
